<?xml version="1.0" encoding="UTF-8" standalone="no"?>
<svg
   xmlns:dc="http://purl.org/dc/elements/1.1/"
   xmlns:cc="http://creativecommons.org/ns#"
   xmlns:rdf="http://www.w3.org/1999/02/22-rdf-syntax-ns#"
   xmlns:svg="http://www.w3.org/2000/svg"
   xmlns="http://www.w3.org/2000/svg"
   xmlns:sodipodi="http://sodipodi.sourceforge.net/DTD/sodipodi-0.dtd"
   xmlns:inkscape="http://www.inkscape.org/namespaces/inkscape"
   inkscape:export-ydpi="520.94055"
   inkscape:export-xdpi="520.94055"
   inkscape:export-filename="/Users/maxedwar/Documents/parity-icon.png"
   style="fill:#000000"
   inkscape:version="1.0beta2 (2b71d25, 2019-12-03)"
   sodipodi:docname="parity-icon-grey.svg"
   id="svg3761"
   xml:space="preserve"
   enable-background="new 0 0 90 90"
   viewBox="0 0 84.917176 84.917175"
   y="0px"
   x="0px"
   version="1.1"
   width="94.352417"
   height="94.352417"><metadata
     id="metadata3767"><rdf:RDF><cc:Work
         rdf:about=""><dc:format>image/svg+xml</dc:format><dc:type
           rdf:resource="http://purl.org/dc/dcmitype/StillImage" /><dc:title>Artboard 2</dc:title></cc:Work></rdf:RDF></metadata><defs
     id="defs3765" /><sodipodi:namedview
     inkscape:document-rotation="0"
     inkscape:pagecheckerboard="false"
     showborder="true"
     fit-margin-bottom="0"
     fit-margin-right="0"
     fit-margin-left="0"
     fit-margin-top="0"
     inkscape:current-layer="svg3761"
     inkscape:window-maximized="0"
     inkscape:window-y="77"
     inkscape:window-x="114"
     inkscape:cy="16.93297"
     inkscape:cx="115.10765"
     inkscape:zoom="2.1341526"
     showgrid="false"
     id="namedview3763"
     inkscape:window-height="693"
     inkscape:window-width="1176"
     inkscape:pageshadow="2"
     inkscape:pageopacity="0"
     guidetolerance="10"
     gridtolerance="10"
     objecttolerance="10"
     borderopacity="1"
     bordercolor="#666666"
     pagecolor="#ffffff" /><title
     id="title3753">Artboard 2</title><desc
     id="desc3755">Created with Sketch.</desc><path
     inkscape:connector-curvature="0"
     id="path3757"
     d="M 43.034768,1.5283103e-4 C 42.065143,0.00875284 41.098151,0.40340284 40.364651,1.1814028 c -1.467,1.557 -1.446297,4.058843 0.0457,5.5898434 L 64.562694,31.544098 H 10.989845 C 8.896844,31.544098 7.2,33.315177 7.2,35.499177 c 0,2.184 1.696844,3.95332 3.789845,3.95332 h 62.833007 c 3.391,0 5.073297,-4.291851 2.654297,-6.772851 L 45.722461,1.1339418 c -0.746,-0.76549996 -1.71807,-1.14241396 -2.687695,-1.13378896897 z M 10.996877,45.464216 c -3.391,0 -5.074054,4.291851 -2.656054,6.772852 l 30.752929,31.545703 c 1.492001,1.530999 3.892571,1.509539 5.359571,-0.04746 1.467,-1.557 1.446297,-4.061602 -0.0457,-5.591602 L 20.255276,53.370857 h 53.572851 c 2.093001,0 3.789845,-1.770321 3.789845,-3.95332 0,-2.183001 -1.696844,-3.953321 -3.789845,-3.953321 z"
     style="fill:#464646;fill-opacity:1;stroke-width:1" /><g
     transform="translate(-8.999998,-3.0004332)"
     inkscape:label="Text"
     id="layer1"
     inkscape:groupmode="layer" /></svg>
