<?xml version="1.0" encoding="UTF-8" standalone="no"?>
<svg
   xmlns:dc="http://purl.org/dc/elements/1.1/"
   xmlns:cc="http://creativecommons.org/ns#"
   xmlns:rdf="http://www.w3.org/1999/02/22-rdf-syntax-ns#"
   xmlns:svg="http://www.w3.org/2000/svg"
   xmlns="http://www.w3.org/2000/svg"
   xmlns:xlink="http://www.w3.org/1999/xlink"
   xmlns:sodipodi="http://sodipodi.sourceforge.net/DTD/sodipodi-0.dtd"
   xmlns:inkscape="http://www.inkscape.org/namespaces/inkscape"
   height="94.352417"
   width="94.352417"
   version="1.1"
   x="0px"
   y="0px"
   viewBox="0 0 84.917176 84.917175"
   enable-background="new 0 0 90 90"
   xml:space="preserve"
   id="svg3761"
   sodipodi:docname="parity-icon.svg"
   inkscape:version="0.92.2 5c3e80d, 2017-08-06"
   style="fill:#000000"
   inkscape:export-filename="/Users/maxedwar/Documents/parity-icon.png"
   inkscape:export-xdpi="520.94055"
   inkscape:export-ydpi="520.94055"><metadata
     id="metadata3767"><rdf:RDF><cc:Work
         rdf:about=""><dc:format>image/svg+xml</dc:format><dc:type
           rdf:resource="http://purl.org/dc/dcmitype/StillImage" /><dc:title>Artboard 2</dc:title></cc:Work></rdf:RDF></metadata><defs
     id="defs3765"><linearGradient
       inkscape:collect="always"
       id="linearGradient917"><stop
         style="stop-color:#ff0066;stop-opacity:1;"
         offset="0"
         id="stop913" /><stop
         style="stop-color:#464646;stop-opacity:1"
         offset="1"
         id="stop915" /></linearGradient><linearGradient
       inkscape:collect="always"
       xlink:href="#linearGradient917"
       id="linearGradient919"
       x1="35.834766"
       y1="0.00014470993"
       x2="36.267323"
       y2="82.808609"
       gradientUnits="userSpaceOnUse"
       gradientTransform="translate(7.2,8.1210899e-6)" /></defs><sodipodi:namedview
     pagecolor="#ffffff"
     bordercolor="#666666"
     borderopacity="1"
     objecttolerance="10"
     gridtolerance="10"
     guidetolerance="10"
     inkscape:pageopacity="0"
     inkscape:pageshadow="2"
     inkscape:window-width="1339"
     inkscape:window-height="796"
     id="namedview3763"
     showgrid="false"
     inkscape:zoom="2.1341526"
     inkscape:cx="115.10765"
     inkscape:cy="16.93297"
     inkscape:window-x="70"
     inkscape:window-y="5"
     inkscape:window-maximized="0"
     inkscape:current-layer="svg3761"
     fit-margin-top="0"
     fit-margin-left="0"
     fit-margin-right="0"
     fit-margin-bottom="0"
     showborder="true"
     inkscape:pagecheckerboard="false" /><title
     id="title3753">Artboard 2</title><desc
     id="desc3755">Created with Sketch.</desc><path
     style="fill:url(#linearGradient919);fill-opacity:1;stroke-width:1"
     d="M 43.034768,1.5283103e-4 C 42.065143,0.00875284 41.098151,0.40340284 40.364651,1.1814028 c -1.467,1.557 -1.446297,4.058843 0.0457,5.5898434 L 64.562694,31.544098 H 10.989845 C 8.896844,31.544098 7.2,33.315177 7.2,35.499177 c 0,2.184 1.696844,3.95332 3.789845,3.95332 h 62.833007 c 3.391,0 5.073297,-4.291851 2.654297,-6.772851 L 45.722461,1.1339418 c -0.746,-0.76549996 -1.71807,-1.14241396 -2.687695,-1.13378896897 z M 10.996877,45.464216 c -3.391,0 -5.074054,4.291851 -2.656054,6.772852 l 30.752929,31.545703 c 1.492001,1.530999 3.892571,1.509539 5.359571,-0.04746 1.467,-1.557 1.446297,-4.061602 -0.0457,-5.591602 L 20.255276,53.370857 h 53.572851 c 2.093001,0 3.789845,-1.770321 3.789845,-3.95332 0,-2.183001 -1.696844,-3.953321 -3.789845,-3.953321 z"
     id="path3757"
     inkscape:connector-curvature="0" /><g
     inkscape:groupmode="layer"
     id="layer1"
     inkscape:label="Text"
     transform="translate(-8.999998,-3.0004332)" /></svg>