<svg xmlns="http://www.w3.org/2000/svg" viewBox="0 0 691.25 424.38"><defs><style>.cls-1{fill:#82ca9c;}.cls-2{fill:none;}.cls-3{fill:#618138;}.cls-4{fill:#8dc63f;}.cls-5{fill:#3a7b3c;}.cls-6{fill:#384526;}.cls-7{fill:#6ca9a0;}.cls-8{fill:#838e52;}.cls-9{fill:#9bd3ae;}.cls-10{fill:#a6ce39;}.cls-11{fill:#8ea366;}.cls-12{fill:#7fac7b;}.cls-13{fill:#489f97;}.cls-14{fill:#6f8946;}.cls-15{fill:#fff;}.cls-16{fill:#231f20;}</style></defs><title>Layer 4</title><g id="Layer_2" data-name="Layer 2"><g id="Layer_4" data-name="Layer 4"><g id="artwork"><rect class="cls-1" x="458.75" width="185.63" height="28.13"/><rect class="cls-2" x="33.11" y="149.98" width="24.14" height="122.52"/><polygon class="cls-3" points="33.11 272.5 33.11 149.98 0 149.98 0 291.25 57.25 291.25 57.25 272.5 33.11 272.5"/><polygon class="cls-4" points="231.25 361.23 231.25 331.25 153.75 331.25 153.75 389.38 253.13 389.38 253.13 361.23 231.25 361.23"/><polygon class="cls-5" points="295.63 389.38 253.13 389.38 253.13 424.38 457.52 424.38 457.52 361.23 295.63 361.23 295.63 389.38"/><rect class="cls-4" x="253.13" y="361.23" width="42.5" height="28.14"/><rect class="cls-6" x="457.53" y="361.23" width="53.57" height="27.52"/><polygon class="cls-7" points="673.01 126.35 673.01 361.23 673.01 388.75 653.45 388.75 651.25 388.75 644.38 388.75 511.1 388.75 511.1 424.38 691.25 424.38 691.25 126.35 673.01 126.35"/><polygon class="cls-8" points="186.25 123.25 217.5 123.25 217.5 19.38 161.25 19.38 161.25 102.5 186.25 102.5 186.25 123.25"/><polygon class="cls-9" points="57.25 123.25 161.25 123.25 186.25 123.25 186.25 102.5 161.25 102.5 33.11 102.5 33.11 149.98 57.25 149.98 57.25 123.25"/><polygon class="cls-10" points="290.74 62.25 422.5 62.25 422.5 28.13 422.5 0 217.5 0 217.5 19.38 290.74 19.38 290.74 62.25"/><polygon class="cls-11" points="231.25 123.25 231.25 62.25 290.74 62.25 290.74 19.38 217.5 19.38 217.5 123.25 231.25 123.25"/><polygon class="cls-6" points="651.25 62.25 651.25 126.35 673.01 126.35 673.01 28.13 644.38 28.13 644.38 62.25 651.25 62.25"/><rect class="cls-6" x="422.5" y="28.13" width="36.25" height="34.12"/><rect class="cls-12" x="458.75" y="28.13" width="185.63" height="34.12"/><rect class="cls-13" x="511.09" y="361.23" height="27.52"/><polygon class="cls-13" points="511.1 361.23 511.1 361.23 651.25 361.23 651.25 361.23 511.1 361.23"/><polygon class="cls-13" points="651.25 126.35 651.25 361.23 511.1 361.23 511.1 388.75 673.01 388.75 673.01 126.35 651.25 126.35"/><rect class="cls-14" x="33.11" y="149.98" width="24.14" height="122.52"/></g><g id="White_Area" data-name="White Area"><polygon class="cls-15" points="209.25 331.25 231.25 331.25 231.25 361.23 253.13 361.23 295.63 361.23 457.52 361.23 511.1 361.23 651.25 361.23 651.25 126.35 651.25 62.25 644.38 62.25 458.75 62.25 422.5 62.25 290.74 62.25 231.25 62.25 231.25 123.25 217.5 123.25 186.25 123.25 161.25 123.25 57.25 123.25 57.25 149.98 57.25 272.5 57.25 291.25 57.25 331.25 153.75 331.25 209.25 331.25"/></g><g id="text"><path class="cls-16" d="M124.26,196.61a37,37,0,0,1-12,2.11c-6.32,0-11.09-1.61-14.64-5-3.32-3.16-5.26-8.1-5.21-13.75,0-11.81,8.43-19.41,20.8-19.41a24.83,24.83,0,0,1,9.92,1.77l-1.5,5.49a20.22,20.22,0,0,0-8.48-1.6c-8,0-13.59,4.71-13.59,13.41,0,8.49,5.22,13.53,13,13.53a13.19,13.19,0,0,0,5.16-.77v-9.32h-6.6V177.7h13.2Z"/><path class="cls-16" d="M131.13,180c0-3.66,0-6.26-.22-8.7h5.93l.22,5.15h.23a8.05,8.05,0,0,1,7.37-5.76,7.26,7.26,0,0,1,1.61.16v6.44a9,9,0,0,0-2-.23,6,6,0,0,0-6.1,5.16,11.8,11.8,0,0,0-.22,2.11v14h-6.82Z"/><path class="cls-16" d="M155.2,186.74c.16,4.88,4,7,8.31,7a20.2,20.2,0,0,0,7.49-1.22l1,4.71a25.41,25.41,0,0,1-9.43,1.72c-8.76,0-13.92-5.43-13.92-13.7,0-7.48,4.55-14.52,13.2-14.52,8.82,0,11.65,7.21,11.65,13.14a15.74,15.74,0,0,1-.23,2.88ZM167.06,182c.06-2.49-1.05-6.6-5.6-6.6-4.21,0-6,3.83-6.26,6.6Z"/><path class="cls-16" d="M200,191.84a44.42,44.42,0,0,0,.38,6.49h-6.15l-.44-3h-.17a10,10,0,0,1-8,3.6c-5.43,0-8.48-3.94-8.48-8,0-6.82,6-10.26,16-10.2v-.45c0-1.77-.73-4.71-5.49-4.71a14.25,14.25,0,0,0-7.27,2L179,173.1a19.46,19.46,0,0,1,9.76-2.38c8.65,0,11.15,5.49,11.15,11.36Zm-6.66-6.71c-4.82-.11-9.42,1-9.42,5.05a3.57,3.57,0,0,0,3.88,3.88,5.52,5.52,0,0,0,5.32-3.71,4.83,4.83,0,0,0,.22-1.5Z"/><path class="cls-16" d="M214.64,164.4v6.93h6.49v5.1h-6.49v11.92c0,3.27.89,5,3.49,5a8.53,8.53,0,0,0,2.67-.33l.11,5.21a14.72,14.72,0,0,1-4.94.72,8,8,0,0,1-5.88-2.27c-1.44-1.56-2.1-4-2.1-7.54v-12.7h-3.88v-5.1H208v-5Z"/><path class="cls-16" d="M230.78,186.74c.16,4.88,4,7,8.32,7a20.18,20.18,0,0,0,7.48-1.22l1,4.71a25.41,25.41,0,0,1-9.43,1.72c-8.76,0-13.91-5.43-13.91-13.7,0-7.48,4.54-14.52,13.19-14.52,8.82,0,11.65,7.21,11.65,13.14a15.74,15.74,0,0,1-.23,2.88ZM242.64,182c.06-2.49-1-6.6-5.6-6.6-4.21,0-6,3.83-6.26,6.6Z"/><path class="cls-16" d="M254.57,180c0-3.66-.06-6.26-.22-8.7h5.93l.22,5.15h.22a8.05,8.05,0,0,1,7.38-5.76,7.32,7.32,0,0,1,1.61.16v6.44a9,9,0,0,0-2-.23,6,6,0,0,0-6.1,5.16,11.8,11.8,0,0,0-.22,2.11v14h-6.82Z"/><path class="cls-16" d="M286.06,161.46a56.42,56.42,0,0,1,9.93-.78c5,0,8.15.61,10.7,2.38a7.89,7.89,0,0,1,3.88,7c0,3.44-2.16,6.6-6.21,8.1v.11c3.94,1,7.54,4.1,7.54,9.26a9.71,9.71,0,0,1-3.6,7.71c-2.66,2.32-7,3.49-13.86,3.49a66.41,66.41,0,0,1-8.38-.5Zm6.77,14.75h3.49c4.71,0,7.38-2.22,7.38-5.38,0-3.5-2.67-5.1-7-5.1a19.14,19.14,0,0,0-3.88.27Zm0,17.19a22.43,22.43,0,0,0,3.6.16c4.38,0,8.26-1.66,8.26-6.26,0-4.33-3.77-6.1-8.48-6.1h-3.38Z"/><path class="cls-16" d="M325,163.79a3.62,3.62,0,0,1-3.88,3.66,3.58,3.58,0,0,1-3.77-3.66,3.83,3.83,0,0,1,7.65,0Zm-7.26,34.54v-27h6.87v27Z"/><path class="cls-16" d="M331.92,180c0-3.66-.05-6.26-.22-8.7h5.93l.22,5.15h.23a8.05,8.05,0,0,1,7.37-5.76,7.26,7.26,0,0,1,1.61.16v6.44a9,9,0,0,0-2-.23,6,6,0,0,0-6.1,5.16,11.8,11.8,0,0,0-.22,2.11v14h-6.82Z"/><path class="cls-16" d="M351.66,179.37c0-3.11-.05-5.71-.22-8h5.88l.27,4h.17a9.33,9.33,0,0,1,8.32-4.6,7.76,7.76,0,0,1,7.48,5h.11a10.39,10.39,0,0,1,3.33-3.39,9.06,9.06,0,0,1,5.44-1.6c4.49,0,9,3.05,9,11.7v15.91h-6.65V183.41c0-4.49-1.55-7.15-4.82-7.15a5.21,5.21,0,0,0-4.77,3.61,9.47,9.47,0,0,0-.34,2.27v16.19h-6.65V182.69c0-3.77-1.5-6.43-4.66-6.43a5.33,5.33,0,0,0-4.88,3.88,6,6,0,0,0-.38,2.22v16h-6.66Z"/><path class="cls-16" d="M406,163.79a3.62,3.62,0,0,1-3.88,3.66,3.58,3.58,0,0,1-3.77-3.66,3.83,3.83,0,0,1,7.65,0Zm-7.27,34.54v-27h6.88v27Z"/><path class="cls-16" d="M412.88,179.37c0-3.11-.06-5.71-.22-8h6l.33,4h.17a9.73,9.73,0,0,1,8.59-4.65c4.71,0,9.59,3.05,9.59,11.59v16h-6.82V183.08c0-3.88-1.44-6.82-5.15-6.82a5.73,5.73,0,0,0-5.33,4,7,7,0,0,0-.28,2.22v15.86h-6.87Z"/><path class="cls-16" d="M469.05,194.39c0,5.66-1.16,9.71-4,12.26s-6.71,3.27-10.43,3.27c-3.43,0-7.09-.72-9.42-2.16l1.49-5.16a16.32,16.32,0,0,0,7.88,2.05c4.43,0,7.76-2.33,7.76-8.15v-2.33h-.11a9.09,9.09,0,0,1-7.87,4c-6.71,0-11.48-5.54-11.48-13.19,0-8.87,5.77-14.25,12.25-14.25a8.48,8.48,0,0,1,7.82,4.21h.11l.28-3.6h5.93c-.11,1.83-.22,4-.22,7.76Zm-6.82-12.25a6.85,6.85,0,0,0-.22-1.83,5.66,5.66,0,0,0-5.55-4.38c-3.82,0-6.65,3.33-6.65,8.82,0,4.6,2.33,8.31,6.6,8.31A5.81,5.81,0,0,0,462,189a11.47,11.47,0,0,0,.28-2.44Z"/><path class="cls-16" d="M476.37,159h6.88V175h.11a9.09,9.09,0,0,1,3.38-3.1,9.22,9.22,0,0,1,4.66-1.22c4.6,0,9.43,3.05,9.43,11.7v15.91H494V183.19c0-3.93-1.44-6.87-5.21-6.87a5.57,5.57,0,0,0-5.27,3.82,5.83,5.83,0,0,0-.27,2.05v16.14h-6.88Z"/><path class="cls-16" d="M529.05,191.84a42.91,42.91,0,0,0,.39,6.49h-6.16l-.44-3h-.17a10,10,0,0,1-8,3.6c-5.44,0-8.49-3.94-8.49-8,0-6.82,6.05-10.26,16-10.2v-.45c0-1.77-.72-4.71-5.49-4.71a14.24,14.24,0,0,0-7.26,2l-1.34-4.44a19.46,19.46,0,0,1,9.76-2.38c8.65,0,11.15,5.49,11.15,11.36Zm-6.65-6.71c-4.83-.11-9.43,1-9.43,5.05a3.58,3.58,0,0,0,3.88,3.88,5.51,5.51,0,0,0,5.32-3.71,4.85,4.85,0,0,0,.23-1.5Z"/><path class="cls-16" d="M536.26,179.37c0-3.11-.06-5.71-.22-8h5.88l.27,4h.17a9.33,9.33,0,0,1,8.32-4.6,7.76,7.76,0,0,1,7.48,5h.11a10.39,10.39,0,0,1,3.33-3.39,9,9,0,0,1,5.43-1.6c4.5,0,9,3.05,9,11.7v15.91h-6.65V183.41c0-4.49-1.55-7.15-4.83-7.15a5.21,5.21,0,0,0-4.76,3.61,9.47,9.47,0,0,0-.34,2.27v16.19h-6.65V182.69c0-3.77-1.5-6.43-4.66-6.43a5.33,5.33,0,0,0-4.88,3.88,5.83,5.83,0,0,0-.39,2.22v16h-6.65Z"/><path class="cls-16" d="M117.93,252.87c-.94-.94-1.83-1.88-2.93-3.1a15.77,15.77,0,0,1-10.54,3.71c-8.26,0-12.37-5.15-12.37-10.53,0-5,2.94-8.54,7.21-10.81V232a12.05,12.05,0,0,1-3-7.49c0-4.65,3.55-9.59,10.48-9.59,5.27,0,9.26,3.27,9.26,8.37,0,3.89-2.22,7.05-7.71,9.76l0,.22c2.6,3,5.49,6.33,7.54,8.54a27.14,27.14,0,0,0,3.38-9.92h6.1c-1,5.76-2.72,10.48-5.82,14,2.05,2.27,4.1,4.54,6.43,7Zm-12.42-4.38a8.65,8.65,0,0,0,6.21-2.55c-2.27-2.38-5.82-6.32-9.31-10.37-1.78,1.22-3.83,3.16-3.83,6.27a6.53,6.53,0,0,0,6.88,6.65Zm.89-29.22c-2.55,0-3.94,2.22-3.94,4.55s1.06,4.1,2.72,6c3.16-2,5-3.72,5-6.32,0-2-1.11-4.22-3.71-4.22Z"/><path class="cls-16" d="M141.39,245.44a18.86,18.86,0,0,0,9,2.39c4.38,0,6.82-2.05,6.82-5.1,0-2.83-1.89-4.49-6.65-6.21-6.16-2.22-10.1-5.49-10.1-10.87,0-6.1,5.1-10.76,13.2-10.76a19.68,19.68,0,0,1,9,1.89L161,222.27a15.71,15.71,0,0,0-7.43-1.78c-4.33,0-6.21,2.33-6.21,4.49,0,2.89,2.16,4.22,7.15,6.16,6.49,2.44,9.65,5.71,9.65,11.09,0,6-4.55,11.25-14.2,11.25a22.16,22.16,0,0,1-10.09-2.38Z"/><path class="cls-16" d="M196.07,239.12c0,9.93-7,14.36-13.87,14.36-7.65,0-13.53-5.26-13.53-13.91,0-8.88,5.83-14.31,14-14.31S196.07,230.92,196.07,239.12Zm-20.36.28c0,5.21,2.56,9.15,6.71,9.15,3.89,0,6.6-3.83,6.6-9.26,0-4.22-1.88-9-6.54-9C177.66,230.25,175.71,234.91,175.71,239.4Z"/><path class="cls-16" d="M201.67,213.5h6.87v39.37h-6.87Z"/><path class="cls-16" d="M223.18,218.33a3.83,3.83,0,1,1-3.83-3.72A3.62,3.62,0,0,1,223.18,218.33Zm-7.26,34.54v-27h6.87v27Z"/><path class="cls-16" d="M230.11,213.5H237v16.08h.11a9.77,9.77,0,0,1,8-4.32c4.6,0,9.43,3.05,9.43,11.7v15.91h-6.82V237.74c0-3.94-1.45-6.88-5.22-6.88a5.6,5.6,0,0,0-5.54,5.88v16.13h-6.88Z"/><path class="cls-16" d="M286,244.78c0,3.21.11,5.88.22,8.09h-6l-.33-4.1h-.11a9.78,9.78,0,0,1-8.65,4.71c-4.94,0-9.43-2.94-9.43-11.75V225.87h6.82v14.69c0,4.5,1.44,7.38,5,7.38a5.75,5.75,0,0,0,5.21-3.66,6.24,6.24,0,0,0,.39-2.11v-16.3H286Z"/><path class="cls-16" d="M293.38,213.5h6.88v39.37h-6.88Z"/><path class="cls-16" d="M307.63,213.5h6.88v39.37h-6.88Z"/><path class="cls-16" d="M97.62,275.44h3.28v22.69h10.88v2.75H97.62Z"/><path class="cls-16" d="M132.84,291.6c0,6.75-4.68,9.7-9.09,9.7-5,0-8.76-3.63-8.76-9.4,0-6.12,4-9.7,9.06-9.7C129.29,282.2,132.84,286,132.84,291.6Zm-14.49.19c0,4,2.3,7,5.55,7s5.55-3,5.55-7.1c0-3.09-1.55-7-5.48-7S118.35,288.31,118.35,291.79Z"/><path class="cls-16" d="M151.57,300.2a12,12,0,0,1-5.25,1.1c-5.51,0-9.09-3.78-9.09-9.36s3.85-9.7,9.81-9.7a11.21,11.21,0,0,1,4.61.94l-.76,2.57a7.62,7.62,0,0,0-3.85-.87c-4.19,0-6.45,3.09-6.45,6.91,0,4.22,2.71,6.83,6.34,6.83a9.3,9.3,0,0,0,4.07-.91Z"/><path class="cls-16" d="M169.81,296.5a25.32,25.32,0,0,0,.3,4.38h-3l-.26-2.3h-.12a6.79,6.79,0,0,1-5.59,2.72,5.21,5.21,0,0,1-5.58-5.25c0-4.42,3.92-6.83,11-6.79v-.38c0-1.51-.41-4.23-4.15-4.23a9.14,9.14,0,0,0-4.76,1.36l-.75-2.19a11.35,11.35,0,0,1,6-1.62c5.59,0,6.95,3.81,6.95,7.47Zm-3.21-4.94c-3.63-.08-7.74.57-7.74,4.11a2.94,2.94,0,0,0,3.13,3.18,4.56,4.56,0,0,0,4.42-3.06,3.59,3.59,0,0,0,.19-1.06Z"/><path class="cls-16" d="M176.68,274.08H180v26.8h-3.32Z"/><path class="cls-16" d="M209.9,289H200v9.17h11v2.75H196.73V275.44h13.74v2.76H200v8h9.89Z"/><path class="cls-16" d="M216.7,287.56c0-1.89,0-3.44-.15-4.95h2.95l.18,3h.08a6.73,6.73,0,0,1,6-3.43c2.53,0,6.46,1.51,6.46,7.77v10.91h-3.33V290.35c0-2.94-1.09-5.4-4.22-5.4a4.73,4.73,0,0,0-4.46,3.4,4.82,4.82,0,0,0-.23,1.55v11H216.7Z"/><path class="cls-16" d="M243,278.23v4.38h4.75v2.53H243V295c0,2.26.64,3.54,2.49,3.54a6.33,6.33,0,0,0,1.93-.22l.15,2.49a8.14,8.14,0,0,1-3,.49,4.59,4.59,0,0,1-3.58-1.44c-.95-1-1.29-2.6-1.29-4.75v-10h-2.83v-2.53h2.83v-3.36Z"/><path class="cls-16" d="M254.65,292.35c.07,4.49,2.94,6.34,6.26,6.34a12,12,0,0,0,5.06-.94l.57,2.38a14.65,14.65,0,0,1-6.08,1.17c-5.62,0-9-3.74-9-9.25s3.24-9.85,8.57-9.85c6,0,7.55,5.24,7.55,8.6a11.88,11.88,0,0,1-.12,1.55Zm9.74-2.38c0-2.11-.87-5.39-4.61-5.39-3.36,0-4.83,3.09-5.09,5.39Z"/><path class="cls-16" d="M273.22,288.31c0-2.15,0-4-.15-5.7H276l.11,3.59h.15a5.5,5.5,0,0,1,5.06-4,3.93,3.93,0,0,1,.95.11v3.13a5.37,5.37,0,0,0-1.14-.11c-2.34,0-4,1.77-4.45,4.27a8.83,8.83,0,0,0-.15,1.54v9.74h-3.29Z"/><path class="cls-16" d="M287.23,288.58c0-2.34-.07-4.23-.15-6h3l.15,3.14h.08a7.18,7.18,0,0,1,6.49-3.55c4.42,0,7.74,3.73,7.74,9.28,0,6.57-4,9.82-8.3,9.82a6.42,6.42,0,0,1-5.63-2.87h-.07v9.93h-3.29Zm3.29,4.87a7.17,7.17,0,0,0,.15,1.36,5.11,5.11,0,0,0,5,3.88c3.51,0,5.55-2.86,5.55-7.06,0-3.66-1.93-6.79-5.44-6.79a5.3,5.3,0,0,0-5,4.12,5.44,5.44,0,0,0-.22,1.35Z"/><path class="cls-16" d="M310.23,288.31c0-2.15,0-4-.16-5.7H313l.11,3.59h.16a5.48,5.48,0,0,1,5.05-4,3.87,3.87,0,0,1,.95.11v3.13a5.37,5.37,0,0,0-1.14-.11c-2.34,0-4,1.77-4.45,4.27a9.92,9.92,0,0,0-.15,1.54v9.74h-3.28Z"/><path class="cls-16" d="M327.93,277.48a2.06,2.06,0,0,1-4.11,0,2,2,0,0,1,2.07-2.08A2,2,0,0,1,327.93,277.48Zm-3.7,23.4V282.61h3.32v18.27Z"/><path class="cls-16" d="M334.12,297.49a8.76,8.76,0,0,0,4.38,1.32c2.42,0,3.55-1.21,3.55-2.72s-.94-2.45-3.4-3.36c-3.28-1.17-4.83-3-4.83-5.17,0-2.95,2.38-5.36,6.31-5.36a9.16,9.16,0,0,1,4.49,1.13l-.83,2.42a7.06,7.06,0,0,0-3.74-1.06c-2,0-3.06,1.13-3.06,2.49s1.1,2.19,3.48,3.1c3.17,1.2,4.79,2.79,4.79,5.51,0,3.21-2.49,5.51-6.83,5.51a10.52,10.52,0,0,1-5.14-1.28Z"/><path class="cls-16" d="M352.89,292.35c.07,4.49,2.94,6.34,6.27,6.34a12,12,0,0,0,5-.94l.57,2.38a14.65,14.65,0,0,1-6.08,1.17c-5.62,0-9-3.74-9-9.25s3.24-9.85,8.57-9.85c6,0,7.55,5.24,7.55,8.6a11.88,11.88,0,0,1-.12,1.55Zm9.74-2.38c0-2.11-.87-5.39-4.61-5.39-3.36,0-4.83,3.09-5.09,5.39Z"/><path class="cls-16" d="M381.09,275.74a38.7,38.7,0,0,1,6.31-.49c3.24,0,5.62.76,7.13,2.12a6.81,6.81,0,0,1,2.23,5.32,7.49,7.49,0,0,1-2,5.43c-1.74,1.85-4.57,2.8-7.78,2.8a11.19,11.19,0,0,1-2.64-.23v10.19h-3.29ZM384.38,288a10.87,10.87,0,0,0,2.72.27c4,0,6.38-1.93,6.38-5.44,0-3.36-2.38-5-6-5a13.84,13.84,0,0,0-3.09.26Z"/><path class="cls-16" d="M414.43,296.5a26.36,26.36,0,0,0,.3,4.38h-3l-.26-2.3h-.12a6.77,6.77,0,0,1-5.58,2.72,5.21,5.21,0,0,1-5.59-5.25c0-4.42,3.93-6.83,11-6.79v-.38c0-1.51-.42-4.23-4.16-4.23a9.07,9.07,0,0,0-4.75,1.36l-.76-2.19a11.35,11.35,0,0,1,6-1.62c5.59,0,6.95,3.81,6.95,7.47Zm-3.21-4.94c-3.62-.08-7.74.57-7.74,4.11a3,3,0,0,0,3.14,3.18,4.55,4.55,0,0,0,4.41-3.06,3.29,3.29,0,0,0,.19-1.06Z"/><path class="cls-16" d="M421.3,288.31c0-2.15,0-4-.15-5.7h2.91l.11,3.59h.15a5.5,5.5,0,0,1,5.06-4,3.87,3.87,0,0,1,.95.11v3.13a5.37,5.37,0,0,0-1.14-.11c-2.34,0-4,1.77-4.45,4.27a8.83,8.83,0,0,0-.15,1.54v9.74H421.3Z"/><path class="cls-16" d="M440.07,278.23v4.38h4.76v2.53h-4.76V295c0,2.26.64,3.54,2.49,3.54a6.28,6.28,0,0,0,1.93-.22l.15,2.49a8.1,8.1,0,0,1-2.95.49,4.59,4.59,0,0,1-3.58-1.44c-.95-1-1.29-2.6-1.29-4.75v-10H434v-2.53h2.83v-3.36Z"/><path class="cls-16" d="M450.07,287.56c0-1.89,0-3.44-.15-4.95h2.95l.19,3h.07a6.73,6.73,0,0,1,6-3.43c2.53,0,6.46,1.51,6.46,7.77v10.91h-3.32V290.35c0-2.94-1.1-5.4-4.23-5.4a4.73,4.73,0,0,0-4.46,3.4,4.83,4.83,0,0,0-.22,1.55v11h-3.33Z"/><path class="cls-16" d="M474.39,292.35c.07,4.49,2.94,6.34,6.27,6.34a12,12,0,0,0,5-.94l.57,2.38a14.65,14.65,0,0,1-6.08,1.17c-5.62,0-9-3.74-9-9.25s3.24-9.85,8.57-9.85c6,0,7.55,5.24,7.55,8.6a11.88,11.88,0,0,1-.12,1.55Zm9.74-2.38c0-2.11-.87-5.39-4.61-5.39-3.36,0-4.83,3.09-5.09,5.39Z"/><path class="cls-16" d="M493,288.31c0-2.15,0-4-.16-5.7h2.91l.11,3.59H496a5.48,5.48,0,0,1,5.05-4,3.87,3.87,0,0,1,.95.11v3.13a5.34,5.34,0,0,0-1.13-.11c-2.35,0-4,1.77-4.46,4.27a9.92,9.92,0,0,0-.15,1.54v9.74H493Z"/><path class="cls-16" d="M506.37,297.49a8.73,8.73,0,0,0,4.38,1.32c2.42,0,3.55-1.21,3.55-2.72s-.95-2.45-3.4-3.36c-3.28-1.17-4.83-3-4.83-5.17,0-2.95,2.38-5.36,6.3-5.36a9.13,9.13,0,0,1,4.49,1.13l-.83,2.42a7,7,0,0,0-3.73-1.06c-2,0-3.06,1.13-3.06,2.49s1.09,2.19,3.47,3.1c3.17,1.2,4.8,2.79,4.8,5.51,0,3.21-2.5,5.51-6.84,5.51a10.45,10.45,0,0,1-5.13-1.28Z"/><path class="cls-16" d="M523.28,274.08h3.33v11.4h.07a6.23,6.23,0,0,1,2.38-2.34,6.89,6.89,0,0,1,3.4-.94c2.45,0,6.38,1.51,6.38,7.81v10.87h-3.32V290.39c0-2.95-1.1-5.44-4.23-5.44a4.78,4.78,0,0,0-4.46,3.33,4,4,0,0,0-.22,1.58v11h-3.33Z"/><path class="cls-16" d="M549.45,277.48a2,2,0,0,1-2.12,2,2,2,0,0,1-2-2,2,2,0,0,1,2.08-2.08A2,2,0,0,1,549.45,277.48Zm-3.7,23.4V282.61h3.32v18.27Z"/><path class="cls-16" d="M556.09,288.58c0-2.34-.07-4.23-.15-6h3l.15,3.14h.07a7.18,7.18,0,0,1,6.5-3.55c4.41,0,7.73,3.73,7.73,9.28,0,6.57-4,9.82-8.3,9.82a6.42,6.42,0,0,1-5.63-2.87h-.07v9.93h-3.29Zm3.29,4.87a7.17,7.17,0,0,0,.15,1.36,5.11,5.11,0,0,0,5,3.88c3.51,0,5.55-2.86,5.55-7.06,0-3.66-1.92-6.79-5.43-6.79a5.29,5.29,0,0,0-5,4.12,5,5,0,0,0-.23,1.35Z"/></g></g></g></svg>